<svg width="38" height="29" viewBox="0 0 38 29" fill="none" xmlns="http://www.w3.org/2000/svg">
<path d="M32.8105 24.0845H10.8709C10.1612 24.0845 9.56425 23.5653 9.46555 22.8683L6.73955 3.21383H2.46725C1.68235 3.21383 1.04785 2.58238 1.04785 1.80125C1.04785 1.02012 1.68235 0.388672 2.46725 0.388672H7.97565C8.68535 0.388672 9.28225 0.907865 9.38095 1.6048L10.086 6.70319L35.6446 6.61432C36.0676 6.61432 36.4718 6.80141 36.7397 7.12416C37.0123 7.4469 37.1203 7.87722 37.0405 8.29351L34.2016 22.9338C34.0747 23.6027 33.4873 24.0845 32.8105 24.0845ZM12.1023 21.264H31.6402L33.9338 9.44883L10.4761 9.52835L12.1023 21.264Z" fill="#F5B115"/>
<path d="M23.0062 14.2614L22.0521 13.7141C21.0745 13.1529 19.8525 13.8545 19.8525 14.9771V16.0716C19.8525 17.1941 21.0745 17.9004 22.0521 17.3345L23.0062 16.7872C23.9885 16.2259 23.9885 14.8227 23.0062 14.2614Z" fill="#F5B115"/>
<path d="M20.0498 18.4894C20.0122 18.4894 19.9699 18.48 19.937 18.4566C19.8665 18.4145 19.8242 18.3444 19.8242 18.2602V12.7876C19.8242 12.7034 19.8665 12.6332 19.937 12.5911C20.0075 12.549 20.0921 12.549 20.1673 12.5911L24.9331 15.3274C25.0036 15.3695 25.0459 15.4397 25.0459 15.5239C25.0459 15.6081 25.0036 15.6782 24.9331 15.7203L20.1626 18.4613C20.1297 18.48 20.0921 18.4894 20.0498 18.4894ZM20.0498 12.6239C20.0216 12.6239 19.9934 12.6332 19.9652 12.6473C19.9135 12.6753 19.8806 12.7315 19.8806 12.7876V18.2649C19.8806 18.3257 19.9135 18.3771 19.9652 18.4052C20.0169 18.4332 20.078 18.4332 20.1297 18.4052L24.8955 15.6689C24.9472 15.6408 24.9801 15.5847 24.9801 15.5286C24.9801 15.4724 24.9472 15.4163 24.8955 15.3882L20.1297 12.6519C20.1062 12.6286 20.078 12.6239 20.0498 12.6239Z" fill="white"/>
<path d="M16.2293 29.0002C13.3576 29.0002 11.0264 26.6755 11.0264 23.8223H13.8605C13.8605 25.1226 14.9227 26.1797 16.2293 26.1797C17.5359 26.1797 18.5981 25.1226 18.5981 23.8223H21.4322C21.4322 26.6755 19.101 29.0002 16.2293 29.0002Z" fill="#F5B115"/>
<path d="M27.448 29.0002C24.5763 29.0002 22.2451 26.6755 22.2451 23.8223H25.0792C25.0792 25.1226 26.1414 26.1797 27.448 26.1797C28.7546 26.1797 29.8168 25.1226 29.8168 23.8223H32.6509C32.6509 26.6755 30.315 29.0002 27.448 29.0002Z" fill="#F5B115"/>
<path d="M65.3913 13.2369V16.6607H43.0381V13.2369H50.3325V9.81298H54.7317V13.2369H65.3913ZM59.6479 8.01218H44.2507V4.50879H64.0424V12.2827H59.6432V8.01218H59.6479ZM48.7298 23.1764H64.3573V26.4973H44.3306V17.9236H64.0988V21.2446H48.7298V23.1764Z" fill="#231815"/>
<path d="M72.4692 15.4399C71.1485 16.0994 69.7244 16.4502 68.1875 16.483V12.6709C69.0993 12.6194 69.9265 12.3856 70.6597 11.974C71.3929 11.5623 71.9898 11.0385 72.4457 10.4023C72.9016 9.76621 73.2071 9.08798 73.3622 8.36766H68.4977V4.76137H82.5742V8.36766H77.7849C77.7661 8.64363 77.6909 9.05524 77.5499 9.6025L83.345 12.7972L81.3005 16.0152L75.7874 12.8486C74.8944 13.9151 73.7852 14.7757 72.4692 15.4399ZM86.165 18.092C87.9745 18.8731 88.8816 20.122 88.8816 21.8386C88.8816 23.5552 87.9745 24.8041 86.165 25.5852C84.3555 26.3664 81.9397 26.7546 78.9223 26.7546C75.9049 26.7546 73.4891 26.3617 71.6796 25.5852C69.8701 24.8041 68.963 23.5552 68.963 21.8386C68.963 20.122 69.8701 18.8731 71.6796 18.092C73.4891 17.3109 75.9049 16.9227 78.9223 16.9227C81.9397 16.918 84.3555 17.3109 86.165 18.092ZM82.7387 22.9331C83.6975 22.6993 84.1769 22.3391 84.1769 21.8386C84.1769 21.3569 83.6928 20.9967 82.7293 20.7581C81.7611 20.5196 80.4968 20.398 78.927 20.398C77.3572 20.398 76.0882 20.5196 75.1247 20.7581C74.1565 20.9967 73.6771 21.3615 73.6771 21.8386C73.6771 22.3344 74.1565 22.6993 75.1153 22.9331C76.0741 23.167 77.3431 23.2793 78.9317 23.2793C80.5109 23.2793 81.7799 23.1623 82.7387 22.9331ZM91.2645 7.88121V12.0254H88.6795V16.6093H84.3085V4.50879H88.6795V7.88121H91.2645Z" fill="#231815"/>
<path d="M106.398 10.973C106.398 13.9244 105.877 16.4923 104.833 18.672C103.79 20.8517 102.309 22.5309 100.397 23.7049C98.4837 24.879 96.2418 25.4683 93.6709 25.4683V21.3475C96.3123 21.3288 98.3427 20.4027 99.7762 18.5644C101.21 16.7262 101.924 14.1957 101.924 10.9683V8.98508H93.6709V5.01863H106.398V10.973ZM114.186 26.4973H109.815V4.50879H114.186V26.4973Z" fill="#231815"/>
<path d="M140.06 22.0955H131.135V27.0114H126.632V22.0955H117.707V18.1009H140.06V22.0955ZM138.768 16.3797H119V4.76562H123.267V6.74885H134.495V4.76562H138.763V16.3797H138.768ZM134.495 12.5395V10.5329H123.267V12.5395H134.495Z" fill="#231815"/>
</svg>
